# xmcd
#
# Track frame offsets: 
#        150
#        16469
#        32679
#        55458
#        70806
#        86541
#        100939
#        113114
#        133677
#        148426
#        166313
#        186512
#        189756
#
# Disc length: 2769 seconds
#
# Revision: 1
# Processed by: cddbd v1.5.2PL0 Copyright (c) Steve Scherf et al.
# Submitted via: ExactAudioCopy v0.99pb5
#
DISCID=b90acf0d
DTITLE=Carter Calvert and the Roger Cohen Trio - Carter Calvert
DYEAR=2011
DGENRE=Carter Calvert
TTITLE0=The Best is Yet to Come
TTITLE1=Fever
TTITLE2=Bewitched, Bothered and Bewildered
TTITLE3=You Belong to Me
TTITLE4=Not While I'm Around
TTITLE5=Crazy
TTITLE6=What a Little Moonlight Can Do
TTITLE7=Send in the Clowns
TTITLE8=Please Don't Stop Him
TTITLE9=Time After Time
TTITLE10=Memory
TTITLE11=Sometimes I Feel Like A Motherless Child
TTITLE12=Washing of the Water
EXTD=
EXTT0=
EXTT1=
EXTT2=
EXTT3=
EXTT4=
EXTT5=
EXTT6=
EXTT7=
EXTT8=
EXTT9=
EXTT10=
EXTT11=
EXTT12=
PLAYORDER=
